<?xml version="1.0" encoding="UTF-8" standalone="no"?>
<svg xmlns="http://www.w3.org/2000/svg" width="32px" height="32px" viewBox="0 0 32 32" version="1.1">
    <g stroke="none" stroke-width="1" fill="none" fill-rule="evenodd" transform="translate(0,-1)">
        <g fill="#000000">
            <path d="M 12,5 V 3.9979131 C 12,2.8982606 12.897616,2 14.004882,2 h 0.990237 C 16.1061,2 17,2.8944962 17,3.9979131 V 5 h 2.004422 C 19.555163,5 20,5.4472481 20,5.9989566 V 7.0010434 C 20,7.5573397 19.554265,8 19.004422,8 H 9.9955775 C 9.444837,8 9,7.5527519 9,7.0010434 V 5.9989566 C 9,5.4426603 9.4457352,5 9.9955775,5 H 12 Z M 11.000001,4 H 10.00276 C 8.8982867,4 8.0026278,4.8912825 8.0000058,6 H 6.9974219 C 5.8942762,6 5,6.8897632 5,8.0035949 V 28.996405 C 5,30.10296 5.8909254,31 6.9974219,31 H 22.002578 C 23.105724,31 24,30.110237 24,28.996405 V 8.0035949 C 24,6.89704 23.109075,6 22.002578,6 H 20.999994 V 6 C 20.997373,4.8949791 20.104827,4 18.99724,4 H 18 C 17.999096,2.3429914 16.649774,1 14.990745,1 h -0.98149 C 12.347844,1 11.0009,2.338126 11.000001,4 v 0 z m 9.999993,3 H 22.00004 C 22.545291,7 23,7.44909 23,8.0030706 V 28.996929 C 23,29.561082 22.552303,30 22.00004,30 H 6.9999602 C 6.4547089,30 6,29.55091 6,28.996929 V 8.0030706 C 6,7.4389178 6.4476974,7 6.9999602,7 h 1.0000456 c 0.00262,1.1050209 0.8951673,2 2.0027542,2 h 8.99448 c 1.104473,0 2.000132,-0.8912825 2.002754,-2 V 7 Z M 14.5,5 C 14.776142,5 15,4.7761424 15,4.5 15,4.2238576 14.776142,4 14.5,4 14.223858,4 14,4.2238576 14,4.5 14,4.7761424 14.223858,5 14.5,5 Z m -1.246447,18.685282 7.778175,-7.778174 -0.707107,-0.707107 -7.071068,7.071068 -3.7426407,-3.742641 -0.7071068,0.707107 4.4497475,4.449747 z"/>
        </g>
    </g>
</svg>
