<?xml version="1.0" encoding="UTF-8" standalone="no"?>
<svg xmlns="http://www.w3.org/2000/svg" width="32px" height="32px" viewBox="0 0 32 32" version="1.1">
    <g stroke="none" stroke-width="1" fill="none" fill-rule="evenodd">
        <g fill="#000000">
            <path d="M 23.437852,26 21.197647,23.822353 22,23 25.496094,26.503906 22,30 21.197647,29.168235 23.430691,27 H 18 v -1 z m -6.18069,4 H 6.9974219 C 5.8909254,30 5,29.10296 5,27.996405 V 7.0035949 C 5,5.8897632 5.8942762,5 6.9974219,5 H 8.0000058 C 8.0026278,3.8912825 8.8982867,3 10.00276,3 h 0.997241 V 3 C 11.0009,1.338126 12.347844,0 14.009255,0 h 0.98149 C 16.649774,0 17.999096,1.3429914 18,3 h 0.99724 c 1.107587,0 2.000133,0.8949791 2.002754,2 v 0 h 1.002584 C 23.109075,5 24,5.89704 24,7.0035949 V 21.599709 c 1.780838,0.910356 3,2.762948 3,4.900291 0,3.037566 -2.462434,5.5 -5.5,5.5 -1.707937,0 -3.234046,-0.778497 -4.242838,-2 z M 23,21.207032 V 7.0030706 C 23,6.44909 22.545291,6 22.00004,6 h -1.000046 v 0 c -0.0026,1.1087175 -0.898281,2 -2.002754,2 H 10.00276 C 8.8951731,8 8.0026274,7.1050209 8.0000058,6 H 6.9999602 C 6.4476974,6 6,6.4389178 6,7.0030706 V 27.996929 C 6,28.55091 6.4547089,29 6.9999602,29 H 16.599709 C 16.216279,28.249932 16,27.400223 16,26.5 16,23.462434 18.462434,21 21.5,21 c 0.520012,0 1.023168,0.07217 1.5,0.207032 z M 12,4 V 2.9979131 C 12,1.8982606 12.897616,1 14.004882,1 h 0.990237 C 16.1061,1 17,1.8944962 17,2.9979131 V 4 h 2.004422 C 19.555163,4 20,4.4472481 20,4.9989566 V 6.0010434 C 20,6.5573397 19.554265,7 19.004422,7 H 9.9955775 C 9.444837,7 9,6.5527519 9,6.0010434 V 4.9989566 C 9,4.4426603 9.4457352,4 9.9955775,4 Z m 2.5,0 C 14.776142,4 15,3.7761424 15,3.5 15,3.2238576 14.776142,3 14.5,3 14.223858,3 14,3.2238576 14,3.5 14,3.7761424 14.223858,4 14.5,4 Z m 7,27 C 23.985281,31 26,28.985281 26,26.5 26,24.014718 23.985281,22 21.5,22 19.014718,22 17,24.014718 17,26.5 c 0,2.485281 2.014718,4.5 4.5,4.5 z"/>
        </g>
    </g>
</svg>
